<svg width="417" height="512" viewBox="0 0 417 512" fill="none" xmlns="http://www.w3.org/2000/svg">
<path d="M373.205 169.939L169.685 20.6061C153.79 8.96634 134.981 1.9564 115.344 0.353608C95.7079 -1.24919 76.0112 2.61779 58.4383 11.5257C40.8654 20.4337 26.103 34.0346 15.7879 50.8202C5.47285 67.6059 0.00823498 86.9204 0 106.622V405.289C0.00351512 424.999 5.46844 444.324 15.7883 461.117C26.1081 477.91 40.8792 491.515 58.4623 500.423C76.0454 509.33 95.7527 513.192 115.397 511.579C135.042 509.965 153.855 502.94 169.749 491.283L373.269 341.95C386.779 332.043 397.765 319.093 405.338 304.149C412.91 289.205 416.856 272.687 416.856 255.934C416.856 239.181 412.91 222.663 405.338 207.72C397.765 192.776 386.779 179.825 373.269 169.918L373.205 169.939ZM347.947 307.539L144.427 456.873C134.891 463.841 123.613 468.035 111.842 468.989C100.07 469.944 88.2636 467.623 77.7294 462.284C67.1953 456.944 58.3442 448.793 52.1558 438.734C45.9675 428.674 42.6832 417.099 42.6667 405.289V106.622C42.5483 94.7896 45.7706 83.1636 51.9632 73.0802C58.1559 62.9968 67.0677 54.8651 77.6747 49.6195C86.6964 45.0305 96.6729 42.6332 106.795 42.6221C120.36 42.6739 133.551 47.0784 144.427 55.1875L347.947 204.521C356.043 210.466 362.625 218.234 367.163 227.195C371.7 236.157 374.064 246.06 374.064 256.105C374.064 266.149 371.7 276.053 367.163 285.014C362.625 293.976 356.043 301.743 347.947 307.689V307.539Z" fill="white"/>
</svg>
