<svg width="447" height="512" viewBox="0 0 447 512" fill="none" xmlns="http://www.w3.org/2000/svg">
<path d="M446.464 210.475C400.832 210.475 358.528 195.883 324.011 171.093V349.973C324.011 439.317 251.328 511.979 162.005 511.979C127.488 511.979 95.4667 501.099 69.1627 482.624C27.392 453.291 0 404.779 0 349.973C0 260.629 72.6827 187.947 162.027 187.947C169.451 187.947 176.704 188.565 183.851 189.525V210.368V279.381C176.939 277.227 169.643 275.968 162.027 275.968C121.237 275.968 88.0427 309.163 88.0427 349.973C88.0427 378.389 104.171 403.072 127.723 415.467C137.984 420.864 149.653 423.957 162.048 423.957C201.899 423.957 234.411 392.256 235.904 352.747L235.968 0H323.989C323.989 7.63733 324.736 15.0827 326.059 22.336C332.267 55.872 352.171 84.6507 379.755 102.635C398.955 115.157 421.867 122.475 446.443 122.475L446.464 210.475Z" fill="white"/>
</svg>
