<svg width="510" height="512" viewBox="0 0 510 512" fill="none" xmlns="http://www.w3.org/2000/svg">
<path fill-rule="evenodd" clip-rule="evenodd" d="M435.328 74.4107C387.413 26.4533 323.712 0.0213257 255.851 -7.62939e-06C116.011 -7.62939e-06 2.19733 113.792 2.13333 253.696C2.112 298.411 13.8027 342.059 36.0107 380.544L0 512L134.485 476.715C171.541 496.939 213.269 507.584 255.723 507.605H255.829C395.648 507.605 509.483 393.792 509.547 253.888C509.589 186.112 483.221 122.347 435.328 74.4107ZM255.851 464.747H255.765C217.92 464.747 180.821 454.571 148.437 435.349L140.736 430.784L60.928 451.712L82.24 373.888L77.2267 365.909C56.1067 332.331 44.9707 293.525 44.992 253.696C45.0347 137.429 139.648 42.8373 255.957 42.8373C312.277 42.8373 365.227 64.8107 405.035 104.661C444.843 144.533 466.752 197.504 466.731 253.845C466.667 370.155 372.075 464.747 255.851 464.747ZM371.52 306.816C365.184 303.637 334.016 288.299 328.192 286.187C322.389 284.075 318.165 283.008 313.92 289.344C309.675 295.68 297.557 309.973 293.845 314.219C290.155 318.443 286.443 318.976 280.107 315.797C273.771 312.619 253.333 305.941 229.12 284.331C210.283 267.52 197.547 246.763 193.856 240.405C190.165 234.048 193.472 230.635 196.629 227.477C199.488 224.64 202.965 220.075 206.144 216.363C209.344 212.693 210.389 210.048 212.523 205.803C214.635 201.579 213.589 197.867 211.989 194.688C210.389 191.531 197.717 160.32 192.448 147.627C187.307 135.253 182.08 136.939 178.176 136.747C174.485 136.555 170.261 136.533 166.016 136.533C161.792 136.533 154.923 138.112 149.12 144.469C143.317 150.827 126.933 166.165 126.933 197.355C126.933 228.565 149.653 258.709 152.811 262.933C155.968 267.157 197.504 331.2 261.099 358.656C276.224 365.184 288.043 369.088 297.237 372.011C312.427 376.832 326.251 376.149 337.173 374.528C349.355 372.715 374.677 359.189 379.968 344.384C385.259 329.579 385.259 316.864 383.659 314.24C382.08 311.573 377.856 309.995 371.52 306.816Z" fill="white"/>
</svg>
